<svg xmlns="http://www.w3.org/2000/svg" viewBox="0 0 131.54 90.98" height="343.86" width="497.15"><path transform="translate(-34.75 -31.42)" d="M60.2 122.28c-1.43-.41-2.38-1.58-2.6-3.22-.35-2.5.93-4.54 3.09-4.88.65-.1 1.9.01 2.68.24l.46.14v.94c0 .85-.01.94-.14.94-.1 0-.2-.16-.35-.6-.2-.58-.2-.6-.64-.82a4.19 4.19 0 0 0-2-.37c-1.23.13-1.94 1.21-2.03 3.08-.1 1.91.41 3.3 1.42 3.9.34.21.45.24 1.1.23.59 0 .84-.04 1.22-.2l.49-.2.02-.98a4.76 4.76 0 0 0-.06-1.13c-.04-.09-.2-.18-.38-.21-.5-.09-.6-.13-.6-.26 0-.1.26-.12 1.5-.12 1.27 0 1.5.02 1.5.12 0 .08-.13.16-.34.21-.61.16-.58.1-.6 1.47l-.03 1.24-.22.1a7.1 7.1 0 0 1-3.48.38zm34.43 0c-1.44-.41-2.38-1.58-2.61-3.22-.35-2.5.94-4.54 3.09-4.88.65-.1 1.9.01 2.68.24l.47.14v.94c0 .85-.02.94-.15.94-.1 0-.2-.16-.34-.6-.2-.58-.22-.6-.65-.82a4.19 4.19 0 0 0-2-.37c-1.22.13-1.94 1.21-2.03 3.08-.09 1.91.42 3.3 1.42 3.9.35.21.46.24 1.11.23.58 0 .83-.04 1.22-.2l.48-.2.03-.98a4.76 4.76 0 0 0-.06-1.13c-.05-.09-.21-.18-.39-.21-.49-.09-.59-.13-.59-.26 0-.1.25-.12 1.5-.12 1.26 0 1.5.02 1.5.12 0 .08-.14.16-.35.21-.6.16-.58.1-.6 1.47l-.03 1.24-.21.1a7.1 7.1 0 0 1-3.49.38zm16.91.03c-1.28-.25-2.32-1.4-2.6-2.86a7.53 7.53 0 0 1 .15-2.88 3.62 3.62 0 0 1 2.02-2.2 4.46 4.46 0 0 1 2.58-.02 3.36 3.36 0 0 1 1.96 2.08c.27.74.35 2.28.15 3.08-.53 2.12-2.2 3.22-4.26 2.8zm2-.61a2.9 2.9 0 0 0 1.1-1.65c.15-.5.18-.76.17-1.74 0-1.04-.03-1.23-.22-1.82-.45-1.34-1.19-1.95-2.31-1.95-1.38 0-2.23 1.17-2.34 3.18-.1 2 .5 3.51 1.64 4.08.59.29 1.4.25 1.95-.1zm-25.86-2.76-2.26-3.38-.02 3.03c-.02 1.67 0 3.05.05 3.1.04.03.25.11.46.17.26.06.4.15.42.24.03.13-.09.14-1.2.14-1.1 0-1.22-.01-1.2-.14.02-.09.16-.18.36-.23.64-.17.6.08.6-3.61 0-2.89-.02-3.31-.13-3.43-.07-.07-.17-.13-.22-.13-.26 0-.7-.18-.7-.29 0-.1.17-.12.95-.12h.95l2.1 3.13 2.11 3.12.02-2.77c.03-3.1.06-2.95-.57-3.11-.2-.06-.35-.14-.36-.23-.03-.13.08-.14 1.2-.14 1.1 0 1.22.01 1.2.14-.02.09-.17.17-.4.24-.21.05-.42.12-.47.15-.06.04-.09.9-.09 2.93 0 1.69-.04 3.23-.1 3.72-.08.78-.1.85-.26.85-.13 0-.7-.8-2.44-3.38zm31.77 2.86-1.4-3.66a59.67 59.67 0 0 0-1.3-3.28 1.13 1.13 0 0 0-.43-.23c-.19-.06-.33-.15-.33-.22 0-.1.23-.12 1.39-.12 1.27 0 1.38.01 1.35.14-.02.1-.14.17-.45.22-.23.04-.42.1-.42.15 0 .14 2.22 5.95 2.27 5.95.06 0 2.12-5.68 2.13-5.88 0-.08-.12-.15-.4-.2-.26-.07-.4-.15-.43-.24-.02-.13.25-.14 3.87-.14h3.9v.91c0 .84-.02.91-.16.91-.12 0-.2-.15-.38-.68l-.23-.68-1.44-.03-1.44-.02v3.16l.99-.03.98-.02.18-.5c.1-.28.24-.5.31-.52.12-.03.13.12.13 1.3 0 1.2-.01 1.34-.13 1.32-.08-.02-.2-.2-.28-.47-.23-.68-.21-.68-1.26-.68h-.92v3.57h1.66a6.2 6.2 0 0 0 1.7-.1c.04-.05.15-.4.24-.76.15-.56.21-.68.36-.7.17-.03.17 0 .17.97v1h-3.04c-2.78 0-3.04-.01-3.02-.14.02-.08.18-.17.42-.23.22-.06.43-.16.47-.22.03-.06.07-1.59.07-3.39 0-2.5-.03-3.3-.1-3.4-.28-.37-1.4-.33-1.65.05-.06.09-.56 1.4-1.13 2.9-1.06 2.86-1.78 4.51-1.95 4.51-.05 0-.19-.23-.3-.52zm-71.57.32c0-.07.1-.15.22-.18.42-.1.54-.14.65-.22.14-.12.14-6.8 0-6.92a1.02 1.02 0 0 0-.35-.14c-.47-.1-.53-.13-.53-.25 0-.1.43-.12 2.84-.12h2.83v.91c0 .84 0 .91-.15.91-.12 0-.2-.15-.38-.68l-.23-.68-1.44-.03-1.44-.02v3.23h.96c.67 0 .99-.03 1.05-.1.04-.06.14-.32.22-.58.08-.26.2-.48.26-.48.08 0 .1.3.1 1.37 0 1.1-.02 1.37-.11 1.37-.07 0-.2-.24-.3-.56l-.2-.56-.99-.02-.99-.03V120c0 1.8 0 1.77.49 1.87.48.1.56.14.56.26 0 .1-.25.12-1.54.12-1.3 0-1.54-.02-1.54-.12zm6.07 0c0-.07.14-.16.34-.21.64-.16.6.16.6-3.65 0-3.8.04-3.48-.6-3.64-.2-.05-.34-.14-.34-.2 0-.11.23-.13 1.46-.13 1.34 0 1.47.01 1.44.14-.02.1-.14.17-.35.2-.63.14-.6.02-.6 3.63 0 3.62-.03 3.5.6 3.63.2.04.33.12.35.2.03.14-.1.15-1.44.15-1.23 0-1.46-.02-1.46-.12zm11.35-.02c.02-.08.18-.17.42-.23.22-.06.43-.16.47-.22.12-.2.09-6.64-.03-6.8a.9.9 0 0 0-.47-.2c-.24-.05-.37-.12-.39-.22-.02-.13.1-.14 1.44-.14 1.23 0 1.47.02 1.47.12 0 .07-.14.16-.35.21-.62.16-.58.07-.6 1.73l-.03 1.5h3.81v-1.44c0-1.61-.01-1.64-.61-1.77-.2-.04-.33-.12-.35-.2-.02-.14.1-.15 1.44-.15 1.23 0 1.46.02 1.46.12 0 .07-.13.16-.34.21-.64.16-.59-.16-.59 3.64 0 3.8-.05 3.49.59 3.65.2.05.34.14.34.2 0 .11-.23.13-1.46.13-1.34 0-1.46-.01-1.44-.14.02-.1.15-.17.35-.21.62-.13.62-.14.6-1.96L71 118.3l-1.88-.03-1.89-.02v1.7c0 1.24.03 1.7.1 1.76.06.05.27.12.47.16.24.05.37.12.39.22.02.13-.1.14-1.44.14-1.32 0-1.47-.01-1.45-.14zm9.79.02c0-.13.1-.17.6-.26.55-.1.54-.03.51-3.77l-.02-3.34-.92-.03c-.58-.01-.96.01-1.01.07a3.6 3.6 0 0 0-.3.73c-.14.41-.26.64-.35.66-.11.02-.13-.08-.13-.93v-.96h6.48v.95c0 .86-.01.95-.14.95-.11 0-.2-.18-.39-.72l-.24-.72-1-.03-.98-.02v3.47c0 2.72.02 3.49.1 3.56.06.05.28.12.5.15.29.05.41.12.43.22.03.13-.1.14-1.55.14-1.33 0-1.59-.02-1.59-.12zm5.36-.02c.02-.08.17-.17.42-.23.22-.06.43-.16.46-.22.12-.2.1-6.64-.02-6.8a.94.94 0 0 0-.47-.2c-.24-.05-.37-.12-.39-.22-.02-.13.1-.14 1.44-.14 1.35 0 1.47.01 1.45.14-.02.1-.15.17-.4.22-.2.04-.4.1-.46.16-.08.06-.1.86-.1 3.45 0 2.6.02 3.4.1 3.46.06.05.27.12.47.16.24.05.37.12.39.22.02.13-.1.14-1.45.14-1.32 0-1.46-.01-1.44-.14zm22.11 0c.02-.1.15-.17.4-.22.2-.04.4-.1.46-.16.08-.06.1-.86.1-3.46s-.02-3.39-.1-3.46a1.48 1.48 0 0 0-.47-.15c-.25-.05-.37-.12-.39-.23-.03-.14.07-.14 1.86-.11 2.16.04 2.5.11 3.1.66.49.43.65.88.6 1.66-.1 1.4-1.07 2.33-2.45 2.33-.35 0-.59-.05-.83-.18l-.35-.19v1.48c0 1.05.03 1.51.1 1.61.06.08.29.17.5.2.3.05.42.12.44.22.02.13-.1.14-1.48.14-1.39 0-1.51-.01-1.49-.14zm3.67-3.78c1-.57 1.16-2.34.3-3.15-.39-.35-.76-.47-1.5-.47h-.54v1.86c0 2.13-.08 1.93.85 1.94.45 0 .64-.03.9-.18zm24.03 3.78c.02-.1.15-.17.4-.22.2-.04.4-.1.46-.16.08-.06.1-.86.1-3.46s-.02-3.39-.1-3.46a1.48 1.48 0 0 0-.47-.15c-.24-.05-.37-.12-.39-.22-.02-.13.11-.14 1.66-.14 1.9 0 2.6.1 3.18.48.5.31.74.8.74 1.5 0 .94-.5 1.7-1.36 2.1l-.35.15 1.1 1.48c.6.81 1.17 1.54 1.26 1.62.09.08.33.2.54.25.24.06.4.15.41.23.03.12-.07.14-.7.14-.4 0-.83-.04-.97-.1-.2-.06-.51-.44-1.44-1.73-.65-.9-1.2-1.66-1.24-1.68a2.59 2.59 0 0 0-.48-.1l-.42-.06v1.49c0 1.06.03 1.52.1 1.62.06.08.29.17.5.2.3.05.42.11.44.22.03.13-.1.14-1.48.14-1.39 0-1.51-.01-1.49-.14zm3.53-3.96c.67-.29 1-.84 1-1.7 0-1.22-.6-1.73-2.01-1.74h-.59v1.73c0 .95.03 1.75.06 1.78.1.1 1.24.05 1.54-.07zm4.96 3.98c0-.13.1-.17.6-.26.55-.1.54-.03.52-3.77l-.02-3.34-.93-.03c-.58-.01-.95.01-1.01.07a3.6 3.6 0 0 0-.3.72c-.13.42-.25.65-.34.67-.12.02-.14-.08-.14-.93v-.96h6.48v.95c0 .86-.01.95-.14.95-.1 0-.2-.18-.38-.72l-.25-.72-.99-.03-1-.02v3.47c0 2.72.03 3.49.11 3.56.06.05.29.12.5.15.3.05.42.12.44.22.02.13-.1.14-1.56.14-1.32 0-1.59-.02-1.59-.12zm6.9-.02c.02-.1.15-.17.43-.22.22-.03.45-.1.5-.15.08-.07.11-.44.1-1.43v-1.33l-1.15-2.11c-1.13-2.08-1.15-2.11-1.47-2.2-.19-.06-.34-.15-.35-.23-.03-.13.11-.14 1.36-.14 1.12 0 1.38.02 1.38.12 0 .13-.1.18-.6.26-.21.03-.37.08-.36.11.1.24 1.98 3.65 2.02 3.65.06 0 1.93-3.52 1.93-3.64 0-.05-.06-.09-.14-.09-.3 0-.75-.17-.75-.29 0-.1.2-.12 1.1-.12 1 0 1.1.01 1.08.14-.02.09-.15.17-.34.22-.36.09-.25-.08-1.63 2.41l-1.1 1.98v1.22c0 .67.02 1.28.05 1.35.05.12.21.18.86.33.13.03.23.1.23.18 0 .1-.24.12-1.59.12-1.46 0-1.58-.01-1.56-.14zm-107.9-12.76c-.69-.19-1.2-.5-1.64-1.01-.68-.77-.95-1.62-.95-2.94 0-1.4.32-2.27 1.13-3.11 1-1.04 2.27-1.29 4.22-.82l.72.17v.95c0 .86-.01.94-.14.94-.11 0-.2-.14-.33-.58-.2-.64-.3-.73-1.03-1-1.49-.52-2.57-.12-3.15 1.17a6 6 0 0 0 .02 4.16c.72 1.66 3.06 2.05 4.54.76.17-.15.34-.28.37-.28.03 0 .05.1.05.24 0 .29-.34.6-1.06 1-.91.5-1.78.6-2.75.35zm7 .03c-1.66-.41-2.62-1.88-2.62-3.98s.98-3.62 2.62-4.06a3.74 3.74 0 0 1 2.74.35c1.66.92 2.26 3.84 1.22 5.94a3.45 3.45 0 0 1-3.95 1.75zm1.87-.5c.7-.32 1.08-.87 1.34-1.93a6.6 6.6 0 0 0-.33-3.97c-.58-1.2-1.91-1.7-3-1.12-.77.4-1.2 1.2-1.37 2.51-.2 1.53.15 3.16.85 3.96a2.1 2.1 0 0 0 2.51.56zm6 .5c-1.67-.41-2.64-1.88-2.64-3.98s.99-3.62 2.63-4.06c.91-.24 1.9-.11 2.74.35 1.66.92 2.25 3.84 1.21 5.94a3.45 3.45 0 0 1-3.95 1.75zm1.86-.5c.7-.32 1.07-.87 1.34-1.93a6.6 6.6 0 0 0-.33-3.97c-.58-1.2-1.91-1.7-3-1.12-.77.4-1.2 1.2-1.38 2.51-.2 1.53.15 3.16.86 3.96a2.1 2.1 0 0 0 2.5.56zm66.09.5c-1.55-.4-2.57-1.76-2.69-3.61-.14-2.22.93-3.94 2.77-4.43.77-.2 1.97-.13 3.06.18l.46.13v.94c0 .88 0 .94-.15.94-.12 0-.2-.13-.35-.6-.23-.7-.36-.8-1.36-1.06-1.57-.4-2.55.06-3.08 1.48a8.12 8.12 0 0 0-.13 3.27c.5 2.14 1.9 2.88 3.88 2.02l.3-.13v-.99c0-1.12-.04-1.21-.55-1.3-.44-.07-.5-.1-.5-.24 0-.1.2-.13 1.5-.13 1.25 0 1.5.02 1.5.12 0 .12-.08.16-.55.26-.46.1-.52.3-.5 1.56l.03 1.13-.5.17a6 6 0 0 1-3.14.29zm18.52.03a4.56 4.56 0 0 1-1.5-.7 4.17 4.17 0 0 1-1.1-1.74c-.66-2.2.15-4.51 1.88-5.37.87-.44 1.86-.48 3.3-.13l.73.17v.95c0 .88-.01.94-.16.94-.12 0-.2-.12-.34-.58-.18-.56-.2-.6-.57-.8-.97-.49-2.02-.56-2.69-.16-.78.47-1.18 1.4-1.24 2.87-.05 1.1.04 1.7.35 2.41.74 1.69 2.98 2.06 4.54.77.19-.16.36-.28.39-.28.03 0 .04.12.03.27-.02.22-.11.32-.59.66-.3.21-.76.47-1.01.57-.51.2-1.48.27-2.02.15zm6.89 0c-1.72-.37-2.72-1.84-2.72-4.01 0-2.25 1.1-3.8 2.94-4.12 2-.35 3.71.92 4.06 3.01.12.73.06 2.02-.12 2.6a3.73 3.73 0 0 1-2.04 2.36c-.54.2-1.56.28-2.12.16zm1.55-.42c.68-.19 1.34-1.08 1.6-2.14a9.1 9.1 0 0 0-.04-2.92c-.32-1.39-1.08-2.18-2.17-2.28-1.6-.15-2.57 1.19-2.58 3.51 0 1.5.35 2.64 1.01 3.3a2.2 2.2 0 0 0 2.18.53zm-51.47-3.27c-1.57-4.12-1.53-4.04-2.25-4.03-.22 0-.5.05-.63.12l-.23.11v3.43c0 3.8-.05 3.49.59 3.65.2.05.34.14.34.21 0 .1-.24.12-1.5.12-1.27 0-1.5-.02-1.5-.12 0-.07.1-.15.23-.17.42-.1.54-.14.65-.23.14-.12.14-6.79 0-6.91a1.02 1.02 0 0 0-.35-.15c-.47-.1-.53-.13-.53-.25 0-.1.44-.12 2.88-.12 2.4 0 2.88.02 2.88.12 0 .14-.11.18-.6.26-.2.03-.38.08-.38.11s.49 1.34 1.08 2.91l1.14 3.01c.03.09.07.14.08.12a94.6 94.6 0 0 0 2.1-6.03c-.03-.04-.23-.1-.43-.14-.24-.05-.37-.12-.39-.22-.02-.13.23-.14 3.87-.14h3.9v.91c0 .84-.02.91-.16.91-.12 0-.2-.15-.38-.68l-.24-.68-1.43-.03-1.44-.02v3.16l.98-.03.99-.02.18-.5c.1-.28.23-.5.3-.52.12-.02.14.12.14 1.31 0 1.2-.01 1.34-.13 1.31-.08-.01-.2-.2-.29-.47-.22-.68-.2-.67-1.25-.67h-.92v3.56H105a6.2 6.2 0 0 0 1.72-.1c.03-.05.13-.4.23-.76.15-.56.21-.68.35-.7.17-.03.18 0 .18.97v1h-3.04c-2.78 0-3.05-.01-3.02-.13.01-.09.17-.18.42-.24.21-.06.42-.16.46-.22.04-.06.07-1.59.07-3.39 0-2.5-.02-3.3-.1-3.4-.23-.3-1.28-.33-1.57-.04a54.4 54.4 0 0 0-1.25 3.16c-1.18 3.15-1.7 4.34-1.88 4.34-.06 0-.66-1.45-1.52-3.7zm-38.29 3.48c.02-.09.18-.18.42-.24.22-.06.43-.16.47-.22.11-.19.09-6.64-.03-6.8a1.04 1.04 0 0 0-.47-.2c-.25-.05-.37-.12-.39-.22-.03-.15.07-.15 1.86-.12 1.74.03 1.93.05 2.38.23.6.24 1.13.76 1.26 1.26.24.93-.13 2.09-.85 2.64-.7.55-1.7.7-2.38.34l-.34-.19v1.53c0 1.13.03 1.54.1 1.6.06.06.29.13.51.17.28.04.41.1.43.2.02.14-.1.15-1.48.15-1.36 0-1.51-.01-1.49-.13zm3.6-3.75c.58-.27.89-.9.87-1.8-.01-1.23-.67-1.85-1.98-1.85h-.56v1.85c0 2.12-.08 1.93.81 1.94.35 0 .64-.04.86-.14zm2.54 3.76c0-.07.14-.16.35-.2.64-.17.58.15.58-3.65s.06-3.49-.58-3.65c-.21-.05-.35-.13-.35-.2 0-.11.4-.13 2.84-.13h2.83v.92c0 .9 0 .91-.17.89-.14-.02-.22-.15-.37-.6-.1-.3-.22-.62-.28-.68-.07-.1-.36-.11-1.48-.1l-1.38.03-.03 1.55-.02 1.55h.97c.67 0 .98-.03 1.04-.1.04-.06.14-.3.22-.54.1-.32.18-.43.3-.43.14 0 .15.07.15 1.32 0 1.23-.01 1.33-.15 1.33-.1 0-.18-.1-.25-.36a6 6 0 0 0-.22-.58l-.12-.23-.94.02-.95.03v3.48l1.6.02a7.9 7.9 0 0 0 1.72-.06c.05-.05.18-.4.28-.8.15-.56.22-.7.34-.7.13 0 .15.08.15 1v1h-3.04c-2.61 0-3.04-.03-3.04-.13zm6.64 0c0-.07.1-.15.23-.18.42-.1.54-.13.64-.22.15-.12.15-6.79 0-6.91a1.02 1.02 0 0 0-.34-.15c-.47-.1-.53-.13-.53-.25 0-.1.28-.12 1.68-.12.92 0 1.9.04 2.17.09.66.12 1.24.45 1.54.9.22.32.24.41.24.99 0 .54-.03.69-.23 1.07-.25.46-.7.86-1.16 1.03-.15.05-.27.12-.27.15a36 36 0 0 0 2.22 2.95c.27.3.38.36.62.36.18 0 .35-.06.42-.15.07-.08.62-1.48 1.24-3.12 1.1-2.98 1.68-4.29 1.9-4.33.1-.02.5.97 1.5 3.63.75 2 1.41 3.71 1.47 3.78a.9.9 0 0 0 .36.23c.15.05.29.16.3.23.03.13-.1.14-1.32.14-1.23 0-1.35-.01-1.32-.14.02-.1.14-.16.39-.2l.46-.1c.06-.03-.07-.46-.37-1.27l-.46-1.23h-2.74l-.43 1.2a7.9 7.9 0 0 0-.38 1.26c.02.04.1.07.18.07.3 0 .74.18.74.3 0 .1-.21.12-1.61.1-1.48-.03-1.63-.04-1.8-.2a31.2 31.2 0 0 1-1.26-1.7l-1.15-1.58a1.62 1.62 0 0 0-.48-.11l-.42-.06v1.53c0 1.67 0 1.66.48 1.75.49.1.57.14.57.26 0 .1-.26.12-1.54.12-1.3 0-1.54-.02-1.54-.12zm11.17-3.35a32.69 32.69 0 0 0-1.21-3c-.04.04-.4 1.01-1.1 2.97-.04.08.23.1 1.15.1a4.1 4.1 0 0 0 1.16-.07zm-7.56-.66c1.07-.5 1.36-2.07.53-2.92-.35-.36-.74-.48-1.52-.48h-.6v1.72c0 .95.03 1.75.06 1.78.12.12 1.2.05 1.53-.1zm11.47 3.99c.02-.1.15-.17.43-.21.22-.04.45-.11.5-.16.09-.07.11-.84.11-3.56v-3.47l-.99.02-1 .03-.22.72c-.18.58-.26.73-.38.73-.15 0-.16-.07-.16-.96v-.95h6.48v.96c0 .85-.02.96-.14.93-.08-.02-.2-.25-.34-.66a3.6 3.6 0 0 0-.3-.73c-.05-.06-.43-.08-1.01-.07l-.93.03-.02 3.3c-.01 1.83 0 3.4.02 3.5.05.18.14.22.88.4.12.02.22.1.22.17 0 .1-.24.12-1.59.12-1.46 0-1.58-.01-1.56-.14zm24.7 0c.02-.08.16-.17.32-.21.15-.04.32-.12.38-.17.05-.06.6-1.47 1.23-3.15 1.4-3.74 1.87-4.72 2.06-4.26l1.38 3.66a61.6 61.6 0 0 0 1.48 3.7.9.9 0 0 0 .39.22c.13.04.26.13.27.21.03.13-.1.14-1.35.14-1.13 0-1.39-.02-1.39-.11 0-.14.1-.19.6-.27.2-.03.37-.08.37-.1 0-.03-.2-.6-.45-1.28l-.46-1.22h-2.71l-.43 1.2a5.2 5.2 0 0 0-.35 1.28c.04.04.23.1.43.14.25.05.38.12.4.22.02.13-.08.14-1.08.14s-1.1-.01-1.08-.14zm4.08-4.79c-.32-.84-.6-1.55-.62-1.57-.01-.02-.29.67-.6 1.54l-.58 1.57H115zm11.14 4.8c0-.06.14-.15.35-.2.63-.16.58.16.58-3.64 0-3.8.05-3.49-.58-3.65-.23-.06-.35-.13-.35-.22 0-.11.22-.12 1.97-.09 2.1.04 2.34.08 2.99.52.65.44.87 1.55.48 2.38-.21.45-.79 1-1.2 1.15-.15.06-.27.14-.27.18 0 .04.5.75 1.13 1.58 1.3 1.75 1.41 1.84 2.25 1.77.28-.03.56-.1.63-.15.1-.08.12-.59.12-3.47 0-2.6-.02-3.4-.1-3.46a1.48 1.48 0 0 0-.47-.16c-.24-.05-.37-.12-.39-.22-.02-.13.1-.14 1.45-.14 1.34 0 1.46.01 1.44.14-.02.1-.15.17-.4.22a1 1 0 0 0-.46.2c-.12.16-.14 6.6-.02 6.8.03.06.24.16.46.22.25.06.4.15.42.23.02.13-.17.14-2.13.14-1.77 0-2.21-.02-2.42-.13-.17-.08-.6-.61-1.37-1.69-.62-.86-1.16-1.6-1.22-1.64a1.35 1.35 0 0 0-.52-.15l-.43-.05v1.46c0 .8.04 1.53.08 1.62.05.1.22.17.43.2.52.09.63.13.63.26 0 .1-.26.12-1.54.12-1.3 0-1.54-.02-1.54-.12zm3.61-4c.73-.34 1.11-1.21.93-2.1-.18-.91-.79-1.3-2-1.3h-.6v1.72c0 .95.03 1.75.06 1.78.12.12 1.28.05 1.61-.1zm21.82 4c0-.06.14-.15.35-.2.64-.16.59.16.59-3.64 0-3.8.05-3.49-.6-3.65-.2-.05-.34-.13-.34-.2 0-.11.24-.13 1.5-.13 1.25 0 1.5.02 1.5.12 0 .12-.08.16-.55.25-.51.11-.5.08-.48 3.78l.02 3.34 1.45.03c.8.01 1.48-.01 1.52-.05.04-.04.17-.44.3-.9.16-.57.27-.82.36-.84.12-.02.13.1.13 1.1v1.12h-2.87c-2.47 0-2.88-.02-2.88-.12zm6.17 0c.02-.09.18-.18.42-.24.22-.06.43-.16.47-.22.12-.2.09-6.64-.03-6.8a1 1 0 0 0-.46-.2c-.25-.05-.38-.12-.4-.22-.02-.13.17-.14 2.78-.14h2.8v.91c0 .84-.01.91-.15.91-.12 0-.2-.15-.39-.68l-.23-.68-1.44-.03-1.44-.02v3.16l.99-.03.98-.02.18-.5c.1-.28.24-.5.31-.52.12-.02.14.12.14 1.31 0 1.2-.02 1.33-.14 1.31-.08-.02-.2-.2-.28-.47-.23-.68-.21-.67-1.25-.67h-.93v3.56h1.66a6.2 6.2 0 0 0 1.71-.1c.03-.05.14-.4.24-.76.14-.56.2-.68.35-.7.17-.03.17 0 .17.97v1h-3.04c-2.78 0-3.04-.01-3.02-.14zM34.75 94.74v-1.5H166.3v2.99H34.75zm62.98-3.12A29.98 29.98 0 0 1 69.3 61.5c0-2.07.12-3.52.44-5.3A30.3 30.3 0 0 1 80.3 38.17a29.87 29.87 0 0 1 20.4-6.7 29.82 29.82 0 0 1 23.23 13.25 30.37 30.37 0 0 1 4.92 13.6c.17 1.46.2 4.73.04 6.12a31.74 31.74 0 0 1-5.23 14.45 21.22 21.22 0 0 1-3.3 4.07 29.2 29.2 0 0 1-6.55 4.83 30.45 30.45 0 0 1-11.74 3.73c-.91.09-3.67.17-4.33.11zm3.64-1.36c1.99-.14 4.42-.62 6.5-1.29l.91-.29v-5.4c0-2.96.03-5.43.07-5.48.03-.05.33-.27.66-.49a24.83 24.83 0 0 0 6.38-6.47 27.92 27.92 0 0 0 4.04-9.89c.37-1.82.52-3.32.57-5.4l.05-1.97h-.42c-.53 0-.93.17-1.33.56-.44.44-.57.75-.9 2.12-1.48 6.16-4.57 10-9.82 12.19-.62.25-.77.29-.87.2-.22-.18-.14-.39.3-.74a42.7 42.7 0 0 0 4.59-4.56c1.68-2 2.6-3.72 2.6-4.9 0-.44-.02-.5-.2-.56-.67-.26-2.4.86-3.71 2.4a14.87 14.87 0 0 1-5.84 3.84c-.66.25-1.4.58-1.66.72-1.89 1.1-3.08 2.43-3.46 3.89-.1.38-.12 1.68-.12 8.32 0 6.01-.02 7.9-.1 7.97-.15.16-1 .13-1.06-.03-.03-.07-.05-4.33-.05-9.47V66.2l-.28-.47c-.88-1.5-2.46-2.68-4.68-3.49a16.44 16.44 0 0 1-4.78-2.84c-.3-.26-.89-.85-1.31-1.31-1.1-1.2-2.45-2.1-3.17-2.1-.33 0-.44.13-.44.51 0 1.89 2.28 5.07 6.21 8.65.77.7 1.4 1.32 1.4 1.38 0 .13-.16.3-.3.3-.2 0-2.1-.9-2.91-1.37a13.79 13.79 0 0 1-3.19-2.52c-2.16-2.22-3.36-4.52-4.33-8.3-.37-1.44-.53-1.85-.9-2.3a1.83 1.83 0 0 0-1.6-.6l-.21.04v1.05c0 1.94.22 4.24.6 6.18 1.35 6.84 5.1 12.77 10.36 16.39l.74.5.02 6.44.02 6.42.8.26c3.46 1.1 7.1 1.51 10.82 1.24zM89.1 82.31v-6.15l-.46-.29a24.73 24.73 0 0 1-4.89-4.45 27.5 27.5 0 0 1-5.9-13.23 29.93 29.93 0 0 1-.39-4.65l-.04-2.17.22-.14c.31-.21 1.27-.2 1.76.03.53.23 1.05.75 1.3 1.3.13.25.39 1.08.58 1.84a19.13 19.13 0 0 0 1.94 5.1 14.4 14.4 0 0 0 4.75 5.04c1.52 1.01 1.52.94 0-.6-.79-.8-1.73-1.82-2.1-2.27-1.72-2.13-2.69-4.15-2.58-5.38.03-.34.09-.46.34-.7.3-.27.33-.28.78-.24 1.01.1 2.18.88 3.59 2.4a14.04 14.04 0 0 0 5.56 3.83c2.08.75 3.7 1.81 4.68 3.06l.26.33v-.79c0-.43-.03-1.52-.06-2.42l-.05-1.64-1.67-.85c-1.82-.94-2.22-1.24-2.7-1.98-.48-.78-.62-1.37-.62-2.63v-1.07l1.8.92c1.55.8 1.85.98 2.26 1.4.57.58.9 1.27 1.04 2.1l.12.76c.02.1.13.22.24.28.17.1.23.1.38 0 .15-.11.2-.26.28-.8.13-.93.52-1.77 1.12-2.37.39-.38.74-.6 1.98-1.24a55.4 55.4 0 0 1 1.82-.92l.32-.13-.05 1.14c-.05 1.26-.19 1.81-.63 2.52-.46.73-.95 1.09-2.77 2.02l-1.7.88.05.55c.03.3.05 1.93.05 3.61v3.07l.28-.42c.14-.22.47-.62.71-.87 1.14-1.19 2.39-1.92 4.68-2.76.72-.26 2.15-1.07 3.1-1.75.37-.28 1.23-1.06 1.92-1.79a15.9 15.9 0 0 1 1.85-1.68c2.09-1.38 3.22-1.08 2.95.77s-1.67 3.96-4.63 6.96c-1.36 1.4-1.4 1.44-.93 1.17 4.02-2.3 6.36-5.58 7.65-10.76.18-.75.41-1.52.5-1.72a2.57 2.57 0 0 1 2.38-1.54c.42 0 .65.04.8.13.2.14.2.17.2 1.07 0 6.64-1.74 12.56-5.12 17.45a25.5 25.5 0 0 1-6.04 6.05l-.66.44v5.16c0 2.84.02 5.16.03 5.16a28.78 28.78 0 0 0 17.7-20.83c.43-2.1.6-5.46.42-8.1a28.21 28.21 0 0 0-12.07-21.67 29.7 29.7 0 0 0-7.94-3.88 31.39 31.39 0 0 0-5.19-1.1 46.9 46.9 0 0 0-6.31 0 28.63 28.63 0 0 0-22.6 16.2 28.4 28.4 0 0 0-2.8 11.1c-.22 4.43 1.35 11.24 3.54 15.32a28.94 28.94 0 0 0 12.78 12.1c.63.3 1.91.8 2.17.86.01 0 .02-2.76.02-6.14zm7.73-28.05c-1.5-.75-1.87-.98-2.24-1.35-.56-.56-1-1.46-1.11-2.26-.1-.77-.1-2.03 0-2.03.04 0 .85.4 1.8.88 1.52.78 1.77.94 2.22 1.4.87.9 1.2 1.85 1.14 3.46l-.02.81zm2.72-.15c0-1.6.29-2.41 1.14-3.26.4-.41.72-.6 2.23-1.35l1.78-.88c.07 0 .03 2.06-.05 2.4-.21.94-.98 2-1.81 2.49-.24.13-1.07.56-1.86.95l-1.43.7V54.1zm-2.64-4.78c-1.47-.74-1.79-.93-2.25-1.37-.92-.88-1.26-1.85-1.26-3.58 0-.4.03-.72.07-.72.03 0 .79.35 1.68.8 2.07 1.02 2.55 1.4 3.06 2.44.33.68.46 1.43.43 2.49l-.02.8zm2.64-.11c0-1.63.3-2.46 1.16-3.35.42-.43.68-.59 2.2-1.35.95-.48 1.75-.86 1.79-.86.03 0 .04.54.02 1.22-.03 1.2-.03 1.23-.32 1.85-.34.73-.82 1.3-1.4 1.69-.23.14-1.1.6-1.93 1.01l-1.52.76v-.97zm-1.24-3.96c-.97-1.4-1.15-1.9-1.09-3 .05-.96.26-1.47 1.05-2.6l.75-1.04c.07-.08.23.1.76.84.36.52.75 1.14.86 1.39.41.93.43 2.04.04 3.08-.09.23-.48.88-.88 1.44l-.71 1.01zm-2.38-1.38-.35-.17v-4.28c0-3.21.03-4.3.1-4.37.15-.16.45-.12.59.08.1.17.12.74.12 4.56 0 2.4-.03 4.37-.06 4.36-.03 0-.21-.08-.4-.18zm5.89-4.24c0-4.8-.01-4.68.43-4.68.38 0 .38-.05.38 4.47v4.27l-.37.19-.4.18c-.02 0-.04-2-.04-4.43zm-8 3.17-.34-.18v-2.45c0-1.8.02-2.48.1-2.55.15-.16.53-.12.62.06.1.18.12 5.3.03 5.3-.04 0-.22-.09-.41-.18zm10.1-2.5c0-2.58.01-2.7.16-2.78.22-.12.3-.1.5.08.15.16.15.28.15 2.57v2.4l-.4.2-.4.22zm-6.31-4.05c0-2.89.02-3.04.43-3.04.37 0 .38.07.38 2.43v2.24l-.35.52a2.5 2.5 0 0 1-.4.52c-.04 0-.06-1.2-.06-2.67zm2.49 2.14-.39-.54v-2.18c0-2.01.01-2.2.15-2.32.18-.17.45-.18.57-.03.07.09.09.9.07 2.87l-.02 2.75z" style="fill:#28bd4d;stroke-width:.081897;fill-opacity:1"></path></svg>